<svg width="2764" height="654" viewBox="0 0 2764 654" fill="none" xmlns="http://www.w3.org/2000/svg">
<path d="M177.233 518.529C63.0307 518.529 3.95315 478.265 0 397.739H100.805C103.441 425.767 131.113 439.782 183.821 439.782C229.502 439.782 252.342 427.992 252.342 404.412C252.342 396.404 249.927 390.398 245.095 386.394C240.703 381.945 232.796 378.831 221.376 377.051L115.959 357.031C80.3806 350.357 54.2459 339.235 37.5549 323.663C20.8638 308.092 12.5183 286.959 12.5183 260.265C12.5183 220.669 26.5739 191.529 54.6852 172.843C82.7964 153.712 126.94 144.147 187.116 144.147C292.533 144.147 347.877 182.631 353.148 259.598H253.001C250.366 246.251 243.777 236.686 233.236 230.902C222.694 225.118 206.662 222.227 185.139 222.227C142.533 222.227 121.23 233.127 121.23 254.927C121.23 266.939 131.991 274.947 153.514 278.951L255.637 298.304C292.094 304.978 318.887 316.545 336.017 333.006C353.587 349.022 362.372 370.822 362.372 398.406C362.372 439.337 347.438 469.59 317.569 489.165C287.701 508.741 240.922 518.529 177.233 518.529Z" fill="#F8F7FF"/>
<path d="M671.391 144.147C719.708 144.147 754.188 155.269 774.832 177.514C795.476 199.759 805.798 236.908 805.798 288.961V507.184H695.11V292.298C695.11 251.367 669.854 230.902 619.342 230.902C565.754 230.902 538.522 259.376 537.643 316.322V507.184H426.955V0H537.643V216.22C550.381 190.861 567.511 172.62 589.034 161.498C610.557 149.931 638.009 144.147 671.391 144.147Z" fill="#F8F7FF"/>
<path d="M1093.3 518.529C1015.99 518.529 959.329 503.402 923.312 473.149C887.294 442.896 869.285 395.292 869.285 330.337C869.285 266.271 887.294 219.335 923.312 189.527C959.329 159.273 1015.99 144.147 1093.3 144.147C1169.72 144.147 1225.73 159.273 1261.31 189.527C1297.32 219.78 1315.33 266.716 1315.33 330.337C1315.33 395.292 1297.32 442.896 1261.31 473.149C1225.73 503.402 1169.72 518.529 1093.3 518.529ZM1093.3 429.771C1134.15 429.771 1162.92 422.431 1179.61 407.749C1196.3 392.622 1204.64 366.818 1204.64 330.337C1204.64 294.745 1196.3 269.608 1179.61 254.927C1162.92 240.245 1134.15 232.904 1093.3 232.904C1052.01 232.904 1022.8 240.245 1005.67 254.927C988.978 269.608 980.632 294.745 980.632 330.337C980.632 367.263 988.978 393.067 1005.67 407.749C1022.8 422.431 1052.01 429.771 1093.3 429.771Z" fill="#F8F7FF"/>
<path d="M1642.05 144.147C1704.42 144.147 1750.32 159.273 1779.75 189.527C1809.62 219.78 1824.55 266.716 1824.55 330.337C1824.55 394.847 1809.62 442.451 1779.75 473.149C1750.32 503.402 1704.42 518.529 1642.05 518.529C1567.82 518.529 1517.74 494.504 1491.83 446.455V654H1381.14V155.492H1491.83V214.886C1517.3 167.727 1567.38 144.147 1642.05 144.147ZM1607.13 431.106C1645.34 431.106 1672.58 423.32 1688.83 407.749C1705.52 392.178 1713.86 366.596 1713.86 331.004C1713.86 294.967 1705.74 269.608 1689.49 254.927C1673.67 239.8 1646.66 232.237 1608.45 232.237C1528.5 232.237 1488.53 260.933 1488.53 318.325V340.347C1488.53 368.82 1498.86 391.065 1519.5 407.082C1540.14 423.098 1569.35 431.106 1607.13 431.106Z" fill="#F8F7FF"/>
<path d="M2151.63 144.147C2214.01 144.147 2259.91 159.273 2289.33 189.527C2319.2 219.78 2334.14 266.716 2334.14 330.337C2334.14 394.847 2319.2 442.451 2289.33 473.149C2259.91 503.402 2214.01 518.529 2151.63 518.529C2077.4 518.529 2027.33 494.504 2001.41 446.455V654H1890.73V155.492H2001.41V214.886C2026.89 167.727 2076.96 144.147 2151.63 144.147ZM2116.71 431.106C2154.93 431.106 2182.16 423.32 2198.41 407.749C2215.1 392.178 2223.45 366.596 2223.45 331.004C2223.45 294.967 2215.32 269.608 2199.07 254.927C2183.26 239.8 2156.25 232.237 2118.03 232.237C2038.09 232.237 1998.12 260.933 1998.12 318.325V340.347C1998.12 368.82 2008.44 391.065 2029.09 407.082C2049.73 423.098 2078.94 431.106 2116.71 431.106Z" fill="#F8F7FF"/>
<path d="M2576.23 144.147C2640.35 144.147 2687.57 155.937 2717.88 179.516C2748.63 202.651 2764 238.91 2764 288.294V507.184H2652.65V451.127C2625.42 496.061 2582.16 518.529 2522.86 518.529C2475.86 518.529 2440.28 509.408 2416.12 491.167C2392.4 472.482 2380.54 445.565 2380.54 410.418C2380.54 334.341 2439.18 296.302 2556.46 296.302C2593.36 296.302 2625.42 299.639 2652.65 306.312V288.294C2652.65 267.384 2646.5 252.257 2634.2 242.914C2621.91 233.127 2602.58 228.233 2576.23 228.233C2529.67 228.233 2504.63 240.245 2501.12 264.269H2399.65C2403.6 184.188 2462.46 144.147 2576.23 144.147ZM2559.1 439.782C2587.65 439.782 2610.27 433.776 2626.96 421.763C2643.65 409.306 2652.21 391.733 2652.65 369.043V367.708C2629.37 361.925 2600.16 359.033 2565.02 359.033C2511.44 359.033 2484.64 372.157 2484.64 398.406C2484.64 425.99 2509.46 439.782 2559.1 439.782Z" fill="#F8F7FF"/>
</svg>
